# xmcd CD database file
#
# Track frame offsets:
#	183
#	13575
#	26553
#	36438
#	47245
#	57898
#	71405
#	83085
#	95245
#	106723
#	120853
#	133005
#	145618
#	157590
#	172135
#
# Disc length: 2446 seconds
#
# Revision: 0
# Processed by: cddbd v1.4PL0 Copyright (c) Steve Scherf et al.
# Submitted via: CDex 1.50
#
DISCID=bd098c0f
DTITLE=Tarheel Slim and Little Ann - Golden Classics - The Robin and Fire Years
DYEAR=1989
DGENRE=Vintage R&B
TTITLE0=Wildcat Tamer
TTITLE1=Number 9 Train
TTITLE2=Lock Me In Your Heart
TTITLE3=Can't Stay Away (Pt 1)
TTITLE4=Can't Stay Away (Pt 2)
TTITLE5=It's A Sin
TTITLE6=You're Gonna Reap
TTITLE7=Much Too Late
TTITLE8=Anything For You
TTITLE9=My Kinda Woman
TTITLE10=Too Much Competition
TTITLE11=Don't Ever Leave Me
TTITLE12=It's Too Late
TTITLE13=Forever I'll Be Yours
TTITLE14=Can't Stay Away From You
EXTD=YEAR: 1989
EXTT0=
EXTT1=
EXTT2=
EXTT3=
EXTT4=
EXTT5=
EXTT6=
EXTT7=
EXTT8=
EXTT9=
EXTT10=
EXTT11=
EXTT12=
EXTT13=
EXTT14=
PLAYORDER=
